<svg width="70" height="149" viewBox="0 0 70 149" fill="none" xmlns="http://www.w3.org/2000/svg">
<g clip-path="url(#clip0_21_69)">
<path d="M34.6606 47.9177C29.8239 47.9261 25.9085 51.8872 25.9126 56.7679V140.064C25.9097 142.408 26.8296 144.657 28.4702 146.317C30.1108 147.977 32.3375 148.911 34.6606 148.914C39.4944 148.914 43.4123 144.953 43.4123 140.064V56.7679C43.4164 51.8872 39.501 47.9261 34.6643 47.9177" fill="#F7D186"/>
<path d="M69.7757 37.0002C69.8265 35.8917 69.8265 34.7815 69.7757 33.6729C68.9383 14.9314 53.6481 0 34.9111 0C16.174 0 0.883833 14.9314 0.0389474 33.6729C-0.0142008 34.8192 -0.0129532 35.9673 0.0426858 37.1134C0.0314705 37.4077 0.00156303 37.6982 0.00156303 37.9962V95.9524C0.00156303 107.036 8.96633 116.105 19.9237 116.105H49.9059C60.8595 116.105 69.8243 107.036 69.8243 95.9524V37.9962C69.8243 37.6567 69.7906 37.3322 69.7757 37.0002Z" fill="#FF9234"/>
<mask id="mask0_21_69" style="mask-type:luminance" maskUnits="userSpaceOnUse" x="0" y="0" width="70" height="117">
<path d="M0.210907 33.673C0.161594 34.8193 0.164089 35.9673 0.218384 37.1134C0.20343 37.4077 0.173523 37.6982 0.173523 37.9962V95.9524C0.173523 107.036 9.13829 116.105 20.0956 116.105H50.0779C61.0315 116.105 70 107.036 70 95.9524V37.9962C70 37.6567 69.9626 37.3322 69.9477 37.0003C70.0021 35.8919 70.0033 34.7815 69.9514 33.673C69.1065 14.9314 53.8163 0.00378418 35.083 0.00378418C16.346 0.00378418 1.05579 14.9314 0.210907 33.6692V33.673Z" fill="#FFCD3C"/>
</mask>
<g mask="url(#mask0_21_69)">
<path d="M90.9203 34.7783L4.32693 122.367L-21.3187 96.424L65.2709 8.83508L90.9203 34.7783Z" fill="#FFCD3C"/>
</g>
<mask id="mask1_21_69" style="mask-type:luminance" maskUnits="userSpaceOnUse" x="0" y="0" width="70" height="117">
<path d="M0.210907 33.673C0.161594 34.8193 0.164089 35.9673 0.218384 37.1134C0.20343 37.4077 0.173523 37.6982 0.173523 37.9962V95.9524C0.173523 107.036 9.13829 116.105 20.0956 116.105H50.0779C61.0315 116.105 70 107.036 70 95.9524V37.9962C70 37.6567 69.9626 37.3322 69.9477 37.0003C70.0021 35.8919 70.0033 34.7815 69.9514 33.673C69.1065 14.9314 53.8163 0.00378418 35.083 0.00378418C16.346 0.00378418 1.05579 14.9314 0.210907 33.6692V33.673Z" fill="#F3807B"/>
</mask>
<g mask="url(#mask1_21_69)">
<path d="M65.1924 8.7521L-21.3972 96.341L-53.3085 64.0601L33.2736 -23.5288L65.1924 8.7521Z" fill="#F3807B"/>
</g>
<mask id="mask2_21_69" style="mask-type:luminance" maskUnits="userSpaceOnUse" x="0" y="0" width="70" height="117">
<path d="M0.210907 33.673C0.161594 34.8193 0.164089 35.9673 0.218384 37.1134C0.20343 37.4077 0.173523 37.6982 0.173523 37.9962V95.9524C0.173523 107.036 9.13829 116.105 20.0956 116.105H50.0779C61.0315 116.105 70 107.036 70 95.9524V37.9962C70 37.6567 69.9626 37.3322 69.9477 37.0003C70.0021 35.8919 70.0033 34.7815 69.9514 33.673C69.1065 14.9314 53.8163 0.00378418 35.083 0.00378418C16.346 0.00378418 1.05579 14.9314 0.210907 33.6692V33.673Z" fill="#82FFED"/>
</mask>
<g mask="url(#mask2_21_69)">
<path d="M116.648 60.8044L30.0586 148.39L4.4129 122.446L91.0025 34.8613L116.648 60.8044Z" fill="#35D0BA"/>
</g>
<path d="M28.2866 116.203L43.4646 131.557V116.075L28.2866 116.203Z" fill="#D8AE64"/>
</g>
<defs>
<clipPath id="clip0_21_69">
<rect width="70" height="149" fill="white"/>
</clipPath>
</defs>
</svg>
