<svg width="53" height="53" viewBox="0 0 53 53" fill="none" xmlns="http://www.w3.org/2000/svg">
<g clip-path="url(#clip0_213_674)">
<path d="M51.5 26.5C51.5 40.3071 40.3071 51.5 26.5 51.5C12.6929 51.5 1.5 40.3071 1.5 26.5C1.5 12.6929 12.6929 1.5 26.5 1.5C40.3071 1.5 51.5 12.6929 51.5 26.5Z" fill="#00FFF0" stroke="black" stroke-width="3"/>
<path d="M12.3155 24.9443C12.3155 25.4557 12.5052 25.8268 12.8845 26.0577C13.2639 26.3381 14.0722 26.6268 15.3093 26.9237C16.6124 27.2371 17.5608 27.666 18.1546 28.2103C18.7649 28.7546 19.0701 29.5381 19.0701 30.5608C19.0701 31.633 18.666 32.499 17.8577 33.1588C17.066 33.8186 16.0268 34.1485 14.7402 34.1485C12.8763 34.1485 11.1938 33.4887 9.69278 32.1691L10.9794 30.6351C12.233 31.7072 13.5031 32.2433 14.7897 32.2433C15.433 32.2433 15.9526 32.1031 16.3485 31.8227C16.7443 31.5258 16.9423 31.1464 16.9423 30.6845C16.9423 30.2227 16.7608 29.8598 16.3979 29.5959C16.0515 29.332 15.4247 29.0928 14.5175 28.8784C12.9505 28.5155 11.8619 28.0866 11.2515 27.5918C10.5423 27.0474 10.1876 26.2144 10.1876 25.0928C10.1876 24.0041 10.5835 23.1546 11.3753 22.5443C12.167 21.9175 13.1814 21.6041 14.4186 21.6041C16.0845 21.6041 17.5113 22.0907 18.699 23.0639L17.6103 24.5979C17.2474 24.268 16.7608 24.0041 16.1505 23.8062C15.5402 23.5918 14.9381 23.4845 14.3443 23.4845C13.734 23.4845 13.2392 23.6165 12.8598 23.8804C12.4969 24.1278 12.3155 24.4825 12.3155 24.9443ZM25.3899 30.6103L28.0868 21.901H29.9178L32.6147 30.6103L35.658 21.901H37.86L33.6291 34H31.6002L29.0765 25.7113H28.9281L26.3796 34H24.3507L20.1198 21.901H22.3219L25.3899 30.6103ZM38.5808 21.901H42.9849V34H41.055V23.7072H38.5808V21.901Z" fill="black"/>
</g>
<defs>
<clipPath id="clip0_213_674">
<rect width="53" height="53" fill="white"/>
</clipPath>
</defs>
</svg>
